<!DOCTYPE svg PUBLIC "-//W3C//DTD SVG 1.1//EN" "http://www.w3.org/Graphics/SVG/1.1/DTD/svg11.dtd">
<!-- Uploaded to: SVG Repo, www.svgrepo.com, Transformed by: SVG Repo Mixer Tools -->
<svg fill="#763FF9" height="800px" width="800px" version="1.1" id="Layer_1" xmlns="http://www.w3.org/2000/svg" xmlns:xlink="http://www.w3.org/1999/xlink" viewBox="0 0 512 512" xml:space="preserve">
<g id="SVGRepo_bgCarrier" stroke-width="0"/>
<g id="SVGRepo_tracerCarrier" stroke-linecap="round" stroke-linejoin="round"/>
<g id="SVGRepo_iconCarrier"> <g> <g> <path d="M0,79.175v353.65h512V79.175H0z M73.897,416.99H15.835V95.01h58.062V416.99z M121.402,416.99h-31.67v-73.897h31.67V416.99 z M121.402,327.258h-31.67V184.742h31.67V327.258z M121.402,168.907h-31.67V95.01h31.67V168.907z M163.629,416.99h-26.392v-73.897 h26.392V416.99z M163.629,327.258h-26.392V184.742h26.392V327.258z M163.629,168.907h-26.392V95.01h26.392V168.907z M205.856,416.99h-26.392v-73.897h26.392V416.99z M205.856,327.258h-26.392V184.742h26.392V327.258z M205.856,168.907h-26.392 V95.01h26.392V168.907z M248.082,416.99h-26.392v-73.897h26.392V416.99z M248.082,327.258h-26.392V184.742h26.392V327.258z M248.082,168.907h-26.392V95.01h26.392V168.907z M290.309,416.99h-26.392v-73.897h26.392V416.99z M290.309,327.258h-26.392 V184.742h26.392V327.258z M290.309,168.907h-26.392V95.01h26.392V168.907z M332.536,416.99h-26.392v-73.897h26.392V416.99z M332.536,327.258h-26.392V184.742h26.392V327.258z M332.536,168.907h-26.392V95.01h26.392V168.907z M374.763,416.99h-26.392 v-73.897h26.392V416.99z M374.763,327.258h-26.392V184.742h26.392V327.258z M374.763,168.907h-26.392V95.01h26.392V168.907z M422.268,416.99h-31.67v-73.897h31.67V416.99z M422.268,327.258h-31.67V184.742h31.67V327.258z M422.268,168.907h-31.67V95.01 h31.67V168.907z M496.165,416.99h-58.062V95.01h58.062V416.99z"/> </g> </g> <g> <g> <polygon points="482.969,232.247 482.969,216.412 453.938,216.412 453.938,295.588 482.969,295.588 482.969,279.753 469.773,279.753 469.773,232.247 "/> </g> </g> <g> <g> <polygon points="29.031,216.412 29.031,232.247 42.227,232.247 42.227,279.753 29.031,279.753 29.031,295.588 58.062,295.588 58.062,216.412 "/> </g> </g> </g>
</svg>